<svg width="241" height="235" viewBox="0 0 241 235" fill="none" xmlns="http://www.w3.org/2000/svg">
<path d="M142.033 126.778L179.454 138.391L156.711 168.715L149.776 167.263C149.453 166.296 149.292 165.328 148.969 164.199C148.808 163.392 148.647 162.425 148.324 161.618C148.163 161.295 148.001 160.973 148.001 160.65C147.84 160.005 147.679 159.36 147.517 158.715C147.356 158.231 147.034 157.908 146.872 157.424C146.711 157.102 146.55 156.94 146.55 156.618C146.227 153.392 145.904 154.198 145.259 151.618C145.098 151.134 144.937 150.166 144.937 149.037C144.937 147.908 144.937 144.682 144.937 143.714C144.937 143.553 144.937 143.553 144.937 143.392C144.937 143.069 144.937 142.746 144.937 142.585C144.937 141.94 144.937 141.133 144.937 140.488C144.937 139.682 144.937 138.714 144.775 137.908C144.614 136.456 144.13 135.004 143.646 133.553C143.485 132.585 143.324 131.778 143.001 130.81C142.679 129.52 142.195 128.391 141.872 127.101L142.033 126.778Z" fill="#00813B"/>
<path d="M101.386 121.939L71.5464 115.326C71.7077 115.165 71.869 115.003 71.869 114.681L72.8368 113.713C73.1594 113.391 73.4819 113.068 73.8045 112.907C74.9336 112.261 76.0627 111.294 77.1918 110.648C78.4821 109.842 79.7725 108.874 81.0629 108.068C81.5468 107.745 81.8693 107.584 82.3532 107.261C82.3532 107.261 84.7727 105.648 85.4179 105.003C86.063 104.519 86.5469 104.035 87.0308 103.551C87.0308 103.551 87.1921 103.39 87.3534 103.229C87.3534 103.229 87.5147 103.229 87.5147 103.068C87.8373 102.745 88.3212 102.422 88.6438 102.1C88.9664 101.777 89.289 101.455 89.6116 101.132L91.0632 99.519C91.7084 98.7126 92.3536 98.0674 92.8375 97.2609C93.1601 96.777 93.4827 96.1318 93.8053 95.6479C95.7408 93.5511 97.5151 91.2929 99.6119 89.3574C101.547 87.5831 102.677 85.4863 102.838 82.9055C102.999 83.8733 103.16 84.8411 103.322 85.8089C103.644 87.0992 104.128 88.3896 104.612 89.5187C104.935 90.6477 105.257 91.7768 105.58 92.9059C105.902 93.8737 106.225 95.0027 106.225 95.9705C106.225 97.5835 106.225 99.1964 106.064 100.809L105.902 102.584V102.745C105.741 104.842 106.064 106.939 105.419 108.874C105.257 109.197 105.257 109.519 105.096 109.681C104.612 111.778 104.128 114.036 103.806 116.133C103.483 118.068 102.515 119.52 101.709 121.133C101.709 121.294 101.547 121.617 101.386 121.939Z" fill="#EB6074"/>
<path d="M56.7074 171.457L48.1587 212.265H54.4492L128.484 212.426L106.064 157.747C105.903 157.908 105.903 158.231 105.741 158.392C105.419 158.876 105.258 159.521 104.935 160.005C104.612 160.65 104.29 161.134 103.967 161.618C103.806 161.779 103.806 162.102 103.806 162.263C103.806 164.36 103.645 166.457 103.645 168.554C103.645 170.328 103.322 171.941 102.193 173.393C101.548 174.199 101.064 175.006 100.741 175.973C100.58 176.457 100.58 176.941 100.419 177.264C100.096 178.715 99.9348 180.328 99.4509 181.78C98.967 183.393 98.3218 184.845 97.8379 186.458C97.5154 187.587 97.1928 188.877 97.0315 190.006C96.8702 191.296 96.8702 192.748 97.0315 194.038C97.0315 195.006 97.3541 195.813 97.5153 196.781C97.6766 197.587 97.8379 198.393 97.6766 199.039C97.5153 199.523 97.0315 200.006 96.7089 200.329C96.0637 200.974 95.2572 201.297 94.612 201.942C94.612 201.942 94.1281 202.265 94.1281 202.587C93.9668 202.91 93.9668 202.91 93.9668 203.555C93.8055 204.523 93.6442 205.491 93.4829 206.297C93.1603 207.749 92.5152 209.2 91.5474 210.168C90.7409 210.975 89.2892 211.297 87.8376 211.297C87.1924 211.297 86.5472 211.297 85.902 211.136C85.0955 211.136 84.1278 210.652 83.6439 210.007C83.3213 209.684 83.3213 208.716 83.6439 208.071C83.9665 206.942 84.6116 205.974 85.2568 204.845C85.5794 204.2 86.0633 203.555 86.5472 202.748C86.8698 202.103 87.1924 201.619 87.515 200.974C87.8376 200.329 88.1602 199.684 88.4828 199.039C88.4828 198.877 88.6441 198.716 88.6441 198.232C88.8053 197.748 88.9667 197.264 88.9667 197.264C88.9667 197.103 89.1279 197.103 89.1279 196.942C89.2892 196.619 89.4505 196.297 89.6118 195.974C89.7731 195.813 89.6118 195.49 89.7731 195.168C89.9344 194.361 90.257 193.555 90.5796 192.748C90.7409 192.264 90.9022 191.942 90.9022 191.458C91.0635 188.071 91.0635 184.522 91.2248 181.135C91.3861 178.231 91.5474 175.167 91.7087 172.263C91.87 170.812 91.87 169.199 92.1926 167.747C92.5152 166.296 92.9991 164.683 93.3216 163.231C93.4829 162.424 93.6442 161.457 93.9668 160.65C94.1281 160.328 94.2894 160.005 94.2894 159.682C94.2894 159.521 94.4507 159.36 94.4507 159.037L56.7074 171.457Z" fill="#10B0E6"/>
<path d="M143 68.0665L153.969 59.5178L183.002 109.681C182.195 109.358 181.228 108.874 180.421 108.713C179.776 108.552 178.97 108.068 178.324 108.068C178.163 108.068 177.84 108.068 177.518 107.907C177.195 107.907 176.873 107.907 176.711 107.907C176.228 108.068 175.421 107.907 174.937 108.068C174.776 108.068 174.615 108.068 174.292 108.068C173.485 108.068 172.356 107.745 172.356 107.584C170.743 106.132 169.13 104.842 167.518 103.39C166.388 102.423 165.421 101.455 164.453 100.326C164.292 100.164 164.13 100.003 164.13 99.8419C163.485 99.0354 163.001 98.2289 163.001 98.2289C162.679 97.745 162.356 97.0999 162.033 96.616C161.227 95.1643 160.098 94.0352 158.969 92.7449C158.646 92.4223 158.324 92.0997 158.001 91.7771C157.84 91.6158 157.678 91.4545 157.678 91.4545C157.678 91.4545 157.678 91.4545 157.517 91.2932C156.549 90.4867 155.743 89.6802 154.936 88.8737C153.323 87.0995 151.872 85.4865 150.42 83.7123C149.291 82.4219 148.323 80.9702 147.355 79.5186C147.033 79.0347 146.872 78.5508 146.872 78.0669C146.549 76.4539 146.226 75.0023 145.904 73.3893C144.936 71.2925 144.13 69.5182 143 68.0665Z" fill="#EB6074"/>
<path d="M57.998 110.326L87.1927 59.679L98.806 68.5502C97.6769 70.0019 97.0317 71.4536 96.5479 73.2278C96.2253 74.8408 95.9027 76.2925 95.5801 77.9054C95.4188 78.3893 95.2575 79.0345 95.0962 79.3571C94.1284 80.8088 93.1606 82.2604 92.0316 83.5508C90.5799 85.3251 88.9669 87.0993 87.5153 88.7123C86.7088 89.5188 85.741 90.3252 84.9345 91.1317C84.9345 91.1317 84.9345 91.1317 84.7732 91.293C84.6119 91.4543 84.4506 91.6156 84.4506 91.6156C84.128 91.9382 83.8055 92.2608 83.4829 92.5834C82.3538 93.7125 81.386 95.0028 80.4182 96.4545C80.0956 96.9384 79.773 97.5836 79.4505 98.0675C79.4505 98.0675 78.9666 98.8739 78.3214 99.6804C78.1601 99.8417 77.9988 100.003 77.9988 100.164C77.1923 101.293 76.0632 102.261 74.9342 103.229C73.3212 104.681 71.7082 106.132 70.0953 107.423C69.934 107.584 68.9662 107.907 68.1597 107.907C67.9984 107.907 67.6758 107.907 67.5145 107.907C67.0306 107.745 66.2242 107.907 65.7403 107.745C65.579 107.745 65.2564 107.745 64.9338 107.745C64.6112 107.745 64.2886 107.745 64.1273 107.907C63.4821 107.907 62.6756 108.39 62.0305 108.552C61.0627 108.874 59.7723 109.519 58.8045 109.842C58.3206 110.165 58.1593 110.165 57.998 110.326Z" fill="#E62B4C"/>
<path d="M98.8057 184.038V183.877V183.715V183.554V184.038ZM99.2895 182.425L99.4509 182.102C99.4509 182.264 99.4508 182.425 99.2895 182.425ZM106.064 157.747C106.387 157.102 106.548 156.456 106.709 155.811C106.87 155.166 107.354 154.037 107.354 154.037C107.677 152.908 108 151.617 108.483 150.488C108.967 149.198 109.451 147.908 110.096 146.456C110.58 145.166 110.903 144.037 111.548 142.907C112.516 141.133 113.645 139.359 114.774 137.746C115.742 136.133 116.548 134.52 117.193 132.746C117.677 131.294 119.452 128.713 121.065 128.713C122.678 128.713 124.452 131.133 124.936 132.746C125.581 134.52 126.387 136.133 127.355 137.746C128.484 139.52 129.613 141.133 130.581 142.907C131.226 144.037 131.549 145.327 132.033 146.456C132.517 147.746 133.162 149.037 133.646 150.488C134.13 151.617 134.452 152.908 134.775 154.037C134.775 154.037 135.259 155.327 135.42 155.811C135.743 156.779 136.065 157.747 136.549 158.553C136.872 159.037 137.033 159.682 137.355 160.166C137.678 160.811 138.001 161.295 138.323 161.779C138.485 161.94 138.485 162.263 138.485 162.424V164.521L106.064 157.747ZM138.323 165.328V165.489V165.812V165.328ZM142.356 182.102L142.517 182.425V182.586C142.517 182.425 142.517 182.264 142.356 182.102Z" fill="#007F63"/>
<path d="M225.745 184.039H225.423L225.1 183.877C202.357 178.877 179.615 173.877 156.71 168.877L156.872 168.716L179.453 138.553L196.228 133.069L225.745 184.039Z" fill="#007F63"/>
<path d="M43.3203 135.488L57.0305 111.778C57.0305 111.778 57.1918 111.778 57.3531 111.778C58.4822 111.939 61.5468 110.81 62.5146 110.971C62.6759 110.971 62.8372 110.971 62.8372 111.133C63.4823 112.1 62.0307 112.584 61.5468 113.068C61.2242 113.391 60.7403 113.713 60.4177 114.036C59.9338 114.52 59.1273 115.326 58.4822 115.972L58.6435 116.133C58.4822 116.294 58.4822 116.455 58.3209 116.455C57.6757 117.262 55.9014 119.681 55.9014 119.681C55.9014 119.843 55.9014 120.004 55.9014 120.165C55.9014 120.327 56.0627 120.488 56.224 120.649C56.224 120.649 56.224 120.649 56.3853 120.649C56.8692 120.649 58.1596 119.036 59.4499 117.907C59.9338 117.423 60.4177 117.101 60.7403 116.778L62.0307 115.972C62.192 115.972 62.0307 116.133 62.0307 116.133C61.8694 116.294 61.5468 116.617 61.2242 116.939C59.9338 118.23 57.6757 120.004 57.1918 121.133C57.0305 121.456 57.5144 121.778 57.6757 121.778C58.3209 121.778 59.1273 121.133 59.6112 120.488C60.4177 119.681 62.0307 118.391 62.9985 117.746C63.1597 117.584 63.3211 117.584 63.3211 117.584C63.3211 117.584 63.4823 117.584 63.4823 117.746C63.4823 117.907 63.3211 118.068 63.1598 118.068C62.3533 118.714 61.0629 120.004 60.2564 120.649C59.9338 120.81 58.966 121.778 58.966 122.101C58.966 122.423 59.2886 122.423 59.6112 122.423C59.7725 122.423 59.7725 122.423 59.9338 122.423C60.4177 122.423 61.2242 121.778 61.5468 121.456C61.8694 121.294 64.2888 118.875 64.6114 118.875C65.0953 119.197 61.0629 121.939 61.2242 122.746C61.2242 123.069 61.3855 123.069 61.7081 123.069C62.6759 123.069 65.0953 120.81 65.5792 120.488C66.8696 119.197 68.3212 118.552 69.7729 117.423C70.5794 116.778 71.3859 116.294 71.8697 115.488L101.71 122.262V122.423L90.2575 119.843L63.4823 145.811L63.3211 145.489L43.3203 135.488ZM71.8697 114.681C72.1923 114.359 72.5149 113.875 72.8375 113.552L71.8697 114.681ZM106.387 98.2289V98.3902V98.5515V98.2289ZM106.226 100.164V100.487V100.326V100.164Z" fill="#007F63"/>
<path d="M15.5767 183.716L43.3196 135.488L63.3204 145.489L76.2241 165.489L62.5139 169.683L15.5767 183.716Z" fill="#00813B"/>
<path d="M164.776 110.487L139.291 119.52C138.646 118.391 138.001 117.262 137.839 115.81C137.517 113.713 137.033 111.455 136.549 109.358C136.549 109.036 136.388 108.713 136.226 108.552C135.42 106.616 135.904 104.519 135.743 102.422V102.261L135.581 100.487C135.42 98.8739 135.42 97.261 135.42 95.648C135.42 94.6802 135.743 93.5511 136.065 92.5834C136.388 91.4543 136.71 90.3252 137.033 89.1962C137.517 87.9058 138.001 86.6154 138.323 85.4863C138.646 84.5186 138.646 83.5508 138.807 82.583C138.968 85.1637 140.259 87.2606 142.033 89.0349C144.13 90.9704 145.904 93.2286 147.84 95.3254C148.324 95.8093 148.485 96.4545 148.807 96.9384C149.291 97.7449 149.937 98.5513 150.582 99.1965L152.033 100.809C152.356 101.132 152.679 101.455 153.001 101.777C153.324 102.1 153.808 102.422 154.13 102.745C154.13 102.745 154.292 102.745 154.292 102.906C154.453 103.068 154.614 103.229 154.614 103.229C155.098 103.713 155.743 104.197 156.227 104.681C156.872 105.326 159.292 106.939 159.292 106.939C159.776 107.261 160.098 107.584 160.582 107.745C162.195 108.713 163.485 109.681 164.776 110.487Z" fill="#E62B4C"/>
<path d="M105.741 158.231L105.902 157.908L138.161 165.005V165.489V165.651V165.973V166.457V166.618V166.78V166.941V167.425V167.586V167.747V168.07V168.231V168.393V168.554V168.715V168.876V169.038C138.161 170.812 138.484 172.425 139.613 173.877C140.258 174.683 140.742 175.49 141.065 176.457C141.226 176.941 141.226 177.425 141.387 177.748C141.71 179.199 141.871 180.812 142.355 182.264C142.839 183.877 143.484 185.329 143.968 186.942C144.291 188.071 144.613 189.361 144.774 190.49C144.936 191.781 144.936 193.232 144.774 194.523C144.774 195.49 144.452 196.297 144.291 197.265C144.129 198.071 143.968 198.878 144.129 199.523C144.291 200.007 144.774 200.49 145.097 200.813C145.742 201.458 146.549 201.781 147.194 202.426C147.194 202.426 147.678 202.749 147.678 203.071C147.839 203.394 147.839 203.394 147.839 204.039C148 205.007 148.162 205.975 148.323 206.781C148.646 208.233 149.291 209.684 150.259 210.652C151.065 211.459 152.517 211.781 153.968 211.781C154.614 211.781 155.259 211.781 155.904 211.62C156.71 211.62 157.678 211.136 158.162 210.491C158.485 210.168 158.485 209.2 158.162 208.555C157.839 207.426 157.194 206.458 156.549 205.329C156.226 204.684 155.743 204.039 155.259 203.233C154.936 202.587 154.614 202.103 154.291 201.458C153.968 200.813 153.646 200.168 153.323 199.523C153.323 199.361 153.162 199.2 153.162 198.716C153.001 198.232 152.839 197.748 152.839 197.748C152.839 197.587 152.678 197.587 152.678 197.426C152.517 197.103 152.355 196.781 152.194 196.458C152.033 196.297 152.194 195.974 152.033 195.652C151.871 194.845 151.549 194.039 151.226 193.232C151.065 192.748 150.904 192.426 150.904 191.942C150.742 188.555 150.742 185.006 150.581 181.619C150.42 178.716 150.258 175.651 150.097 172.748C149.936 171.296 149.936 169.683 149.613 168.231V168.07V167.747V167.586V167.263V166.941V166.78L203.164 178.554L167.84 211.943H128.161L105.741 157.586C105.902 158.07 105.902 158.07 105.741 158.231Z" fill="#0094B8"/>
<path d="M13.1571 190.329C13.4797 188.071 14.2862 185.974 15.4153 184.038L56.7071 171.457L48.1584 212.265H31.8675C25.093 212.265 18.8025 208.716 15.4153 202.749C13.4797 199.361 12.6732 195.49 12.8345 191.78C12.9958 191.135 13.1571 190.329 13.1571 190.329Z" fill="#0094B8"/>
<path d="M203.487 179.038L225.101 183.716L225.907 184.038C227.036 185.974 227.681 188.071 228.004 190.168C228.004 190.168 228.165 190.974 228.165 191.78C228.488 195.49 227.681 199.361 225.584 202.749C222.197 208.717 216.068 212.265 209.132 212.265H167.84L203.487 179.038Z" fill="#10B0E6"/>
<path d="M153.969 59.6789L137.355 30.9681C133.968 25.1615 128 21.613 121.387 21.4517C121.064 21.4517 120.903 21.4517 120.58 21.4517C120.258 21.4517 120.096 21.4517 119.774 21.4517C112.999 21.613 107.031 25.1615 103.805 30.9681L87.1919 59.6789L98.6439 68.5502C98.9665 68.0663 99.4504 67.7437 99.773 67.2598C100.902 66.1307 102.192 65.1629 103.967 64.8404C104.773 64.6791 105.58 64.6791 106.225 64.5178C107.031 64.1952 107.838 63.8726 108.644 63.3887C110.096 62.5822 111.548 61.7757 112.999 60.8079C113.483 60.4854 113.967 59.8402 114.29 59.3563C114.612 59.0337 114.612 58.3885 114.774 57.9046C114.774 57.4207 114.774 56.7755 114.774 56.2917C114.935 55.0013 114.612 53.7109 114.128 52.4205C113.967 51.9367 113.967 51.4528 113.806 51.1302C113.644 50.8076 113.483 50.485 113.322 50.1624C113.161 49.8398 112.838 49.3559 112.677 48.2268V48.0655C112.515 47.2591 112.354 46.4526 112.354 45.4848C112.354 44.8396 112.515 44.517 112.999 44.517C113.161 44.517 113.483 44.6783 113.806 44.6783C113.644 44.0331 113.644 43.388 113.483 42.7428C112.838 39.6781 113.806 37.2587 115.741 35.0005C116.709 34.0328 117.999 33.5489 119.129 33.3876C120.258 33.2263 122.193 33.2263 123.322 33.3876C124.29 33.5489 125.742 34.0328 126.709 35.0005C128.645 37.2587 129.613 39.8394 128.968 42.7428C128.806 43.388 128.806 44.0331 128.645 44.6783C128.968 44.517 129.129 44.517 129.452 44.517C129.935 44.517 129.935 44.8396 130.097 45.4848C130.097 46.2913 129.935 47.2591 129.774 48.0655V48.2268C129.452 49.3559 129.29 49.8398 129.129 50.1624C128.968 50.485 128.806 50.8076 128.645 51.1302C128.484 51.4528 128.484 52.098 128.322 52.4205C127.839 53.7109 127.516 54.84 127.677 56.2917C127.677 56.7755 127.677 57.4207 127.677 57.9046C127.677 58.3885 127.839 58.8724 128.161 59.3563C128.484 59.8402 128.968 60.4854 129.452 60.8079C130.903 61.7757 132.355 62.5822 133.807 63.3887C134.613 63.8726 135.419 64.1952 136.226 64.5178C137.032 64.6791 137.678 64.6791 138.484 64.8404C140.097 65.1629 141.387 66.1307 142.678 67.2598C143 67.5824 143.323 67.905 143.484 68.0663L153.969 59.6789Z" fill="#FABB30"/>
<path fill-rule="evenodd" clip-rule="evenodd" d="M63.4824 145.811L76.3861 165.651L93.9674 160.328C94.1287 159.844 94.29 159.199 94.4513 158.715C94.6126 158.231 94.9352 157.908 95.0965 157.424C95.2578 157.102 95.4191 156.941 95.4191 156.618C95.5804 154.36 96.2256 153.715 96.7094 151.618C96.8707 151.134 97.032 150.166 97.032 149.037C97.032 147.908 97.032 144.682 97.032 143.714C97.032 143.553 97.032 143.553 97.032 143.392C97.032 143.069 97.032 142.746 97.032 142.585C97.032 141.94 97.032 141.133 97.032 140.488C97.032 139.682 97.032 138.714 97.1933 137.908C97.3546 136.456 97.8385 135.004 98.3224 133.553C98.4837 132.585 98.645 131.778 98.9676 130.811C99.2902 129.52 99.7741 128.391 100.097 127.101C100.419 125.972 100.742 124.681 101.064 123.552C101.226 123.068 101.387 122.584 101.71 122.101L90.2576 119.52L63.4824 145.811Z" fill="#1BAB7C"/>
<path fill-rule="evenodd" clip-rule="evenodd" d="M142.034 126.778L179.454 138.391L196.229 132.907L184.132 111.939C182.842 111.939 180.099 110.971 179.293 111.132C179.132 111.132 178.97 111.132 178.97 111.294C178.325 112.261 179.777 112.745 180.261 113.229C180.583 113.552 181.067 113.874 181.39 114.197C181.874 114.681 182.68 115.487 183.325 116.132L183.487 116.294C183.648 116.455 183.648 116.616 183.809 116.616C184.454 117.423 186.229 119.842 186.229 119.842C186.229 120.004 186.229 120.165 186.229 120.326C186.229 120.487 186.067 120.649 185.906 120.81C185.906 120.81 185.906 120.81 185.745 120.81C185.261 120.81 183.971 119.197 182.68 118.068C182.196 117.584 181.712 117.262 181.39 116.939L180.099 116.132C179.938 116.132 180.099 116.294 180.099 116.294C180.261 116.455 180.583 116.778 180.906 117.1C182.196 118.391 184.454 120.165 184.938 121.294C185.1 121.617 184.616 121.939 184.454 121.939C183.809 121.939 183.003 121.294 182.519 120.649C181.712 119.842 180.099 118.552 179.132 117.907C178.97 117.745 178.809 117.745 178.809 117.745C178.809 117.745 178.648 117.745 178.648 117.907C178.648 118.068 178.809 118.229 178.97 118.229C179.777 118.874 181.067 120.165 181.874 120.81C182.196 120.971 183.164 121.939 183.164 122.262C183.164 122.584 182.842 122.584 182.519 122.584C182.358 122.584 182.358 122.584 182.196 122.584C181.712 122.584 180.906 121.939 180.583 121.616C180.261 121.455 177.841 119.036 177.519 119.036C177.035 119.358 181.067 122.1 180.906 122.907C180.906 123.229 180.745 123.229 180.422 123.229C179.454 123.229 177.035 120.971 176.551 120.649C175.261 119.358 173.809 118.713 172.357 117.584C171.551 116.939 170.744 116.455 170.26 115.649C169.615 114.681 168.97 113.874 168.002 113.229C166.873 112.584 165.744 111.777 164.776 110.971L139.292 119.52C139.614 120.004 139.775 120.487 140.098 120.971C140.421 121.778 140.904 122.584 141.227 123.552C141.55 124.52 141.711 125.649 142.034 126.778Z" fill="#1BAB7C"/>
<path d="M102.354 30.1617C104.128 26.9357 106.709 24.5163 109.774 22.742C112.677 20.9678 116.226 20 119.774 20C120.419 20 120.903 20 121.548 20C125.258 20 128.645 21.1291 131.549 22.742C134.452 24.5163 137.033 27.097 138.968 30.1617L154.614 57.2594L155.582 59.0337L156.227 60.1628C179.776 100.971 203.326 141.779 227.036 182.587L227.359 183.071L227.52 183.232L227.681 183.554L227.843 183.877C227.843 184.038 228.004 184.038 228.004 184.2C228.165 184.522 228.327 184.845 228.488 185.329C228.649 185.813 228.972 186.296 229.133 186.942C229.294 187.587 229.617 188.232 229.778 189.038V189.2V189.361V189.522V189.684V189.845V190.006V190.168V190.329C229.778 190.329 229.94 191.135 229.94 191.942C230.101 194.039 229.94 195.974 229.456 198.071C228.972 200.007 228.165 201.942 227.198 203.878C225.262 207.104 222.681 209.684 219.617 211.459C216.552 213.233 213.003 214.201 209.294 214.201C150.098 214.201 90.9021 214.201 31.7064 214.201C27.9966 214.201 24.4481 213.233 21.3834 211.459C18.3188 209.684 15.7381 207.104 13.8025 203.878C12.6735 202.103 12.0283 200.168 11.5444 198.071C11.0605 195.974 10.8992 194.039 11.0605 191.942C11.0605 191.135 11.2218 190.329 11.2218 190.329V190.168V190.006C11.3831 188.877 11.7057 187.587 12.1896 186.458C12.6735 185.329 13.1573 184.2 13.8025 183.071L14.1251 182.587C43.481 131.778 72.9982 80.97 102.354 30.1617ZM181.228 110.487L175.26 112.423L167.195 111.294L140.259 120.971L141.549 124.843L179.615 136.617L193.809 131.94L183.164 113.713L181.228 110.487ZM137.194 122.101L120.581 127.907L106.387 124.681L98.3218 156.779L106.064 154.36L106.709 155.973C118.484 158.553 130.258 161.134 142.033 163.876L134.936 138.391L138.162 126.133L137.194 122.101ZM45.5779 134.843C51.3846 137.746 57.3525 140.811 63.1592 143.714L86.7084 120.488C81.3857 119.197 75.9016 118.068 70.5788 116.778L66.7077 112.1L62.8366 110.648L61.7075 110.81L58.9655 111.778L45.5779 134.843ZM43.9649 137.585L18.964 180.974L73.6434 164.521L62.1914 146.618L43.9649 137.585ZM76.8694 163.554L94.7733 158.07L97.0314 152.263V149.521L103.483 124.197L90.5796 121.294L65.5786 145.972L76.7081 163.231L76.8694 163.554ZM136.226 119.036L166.873 108.068L181.228 110.003C172.034 94.035 162.84 78.0667 153.485 62.0983L120.581 87.4218L87.6762 62.0983L60.2558 109.519L62.514 109.681L67.9981 108.552L72.3531 113.713L120.419 124.52L136.226 119.036ZM104.29 158.876L57.9977 172.909L50.0942 210.813H125.742L104.451 159.037L104.29 158.876ZM54.6105 173.877L16.5446 185.329C16.222 185.974 15.8994 186.78 15.5768 187.587C15.2542 188.555 14.9316 189.522 14.7703 190.651C14.7703 190.974 14.609 191.619 14.609 192.103C14.4477 193.877 14.609 195.49 14.9316 197.265C15.2542 198.878 15.8994 200.652 16.8671 202.103C18.4801 204.846 20.577 206.942 23.1577 208.394C25.7384 209.846 28.6418 210.652 31.8677 210.652H47.0296L54.6105 173.877ZM222.52 181.619L195.583 134.843L180.583 139.682L159.614 167.586L222.52 181.619ZM144.291 167.747L143.323 167.586L108.645 159.844L129.613 210.813H167.518L200.261 180.006L144.291 167.747ZM176.712 139.198L141.388 128.23L138.646 138.391L145.904 164.521L156.066 166.618L176.712 139.198ZM203.971 180.812L172.195 210.813H209.294C212.358 210.813 215.423 210.007 218.004 208.555C220.584 207.104 222.842 204.846 224.294 202.103C225.262 200.491 225.746 198.878 226.23 197.265C226.552 195.652 226.714 193.877 226.552 192.103C226.552 191.619 226.391 190.974 226.391 190.651V190.329V190.006V189.684V189.522C226.23 189.038 226.068 188.555 225.907 188.071V187.909C225.746 187.587 225.585 187.103 225.423 186.78C225.262 186.458 225.101 186.296 224.939 185.974L224.778 185.813L203.971 180.812ZM89.2892 59.195L120.419 82.9055L151.711 59.195L135.904 31.7746C134.291 29.1939 132.194 26.9357 129.775 25.4841C127.355 24.0324 124.774 23.2259 121.871 23.0646C120.903 23.0646 120.097 23.0646 119.129 23.0646C116.226 23.2259 113.645 24.0324 111.225 25.4841C108.645 26.9357 106.548 29.0326 105.096 31.7746L89.2892 59.195Z" fill="white"/>
<path d="M138.968 82.5828C139.13 85.1635 140.42 87.2604 142.194 89.0346C144.291 90.9702 146.065 93.2283 148.001 95.3252C148.485 95.8091 148.646 96.4543 148.969 96.9381C149.453 97.7446 150.098 98.5511 150.743 99.1963L152.195 100.809C152.517 101.132 152.84 101.454 153.163 101.777C153.485 102.1 153.969 102.422 154.292 102.745C154.292 102.745 154.453 102.745 154.453 102.906C154.614 103.067 154.775 103.229 154.775 103.229C155.259 103.713 155.905 104.196 156.388 104.68C157.034 105.326 159.453 106.939 159.453 106.939C159.937 107.261 160.26 107.584 160.743 107.745C162.034 108.551 163.324 109.519 164.615 110.326C165.744 111.132 166.711 111.939 168.002 112.584C168.97 113.229 169.776 114.036 170.26 115.003C170.905 115.971 171.55 116.455 172.357 116.939C173.808 118.068 175.26 118.713 176.55 120.004C177.034 120.326 179.293 122.584 180.422 122.584C180.583 122.584 180.744 122.423 180.905 122.262C181.067 121.455 177.034 118.713 177.518 118.391C177.68 118.391 180.26 120.81 180.583 120.971C180.905 121.294 181.712 121.778 182.196 121.939C182.196 121.939 182.357 121.939 182.518 121.939C182.841 121.939 183.164 121.939 183.164 121.616C183.164 121.294 182.196 120.326 181.873 120.165C181.067 119.52 179.776 118.229 178.97 117.584C178.809 117.423 178.486 117.261 178.647 117.261C178.647 117.261 178.647 117.1 178.809 117.1C178.97 117.1 178.97 117.1 179.131 117.261C180.099 117.907 181.712 119.197 182.518 120.004C183.002 120.649 183.809 121.294 184.454 121.294C184.777 121.294 185.099 120.971 184.938 120.649C184.454 119.681 182.196 117.745 180.905 116.455C180.583 116.132 180.26 115.971 180.099 115.649C180.099 115.649 179.938 115.487 180.099 115.487L181.389 116.294C181.712 116.616 182.196 116.939 182.68 117.423C183.809 118.552 185.26 120.004 185.744 120.165C185.744 120.165 185.744 120.165 185.906 120.165C186.067 120.165 186.228 120.004 186.228 119.681C186.228 119.52 186.228 119.358 186.228 119.197C186.228 119.197 184.615 116.778 183.809 115.971C183.648 115.81 183.486 115.649 183.486 115.649L183.325 115.487C182.68 114.842 181.873 114.036 181.389 113.552C181.067 113.229 180.583 112.906 180.26 112.584C179.938 112.261 178.486 111.616 178.97 110.648C178.97 110.487 179.131 110.487 179.293 110.487C180.26 110.326 183.325 111.455 184.454 111.294C186.551 110.971 184.131 109.681 183.486 109.519C182.518 109.197 181.228 108.551 180.26 108.229C179.615 108.068 178.809 107.584 178.163 107.584C178.002 107.584 177.68 107.584 177.357 107.422C177.034 107.422 176.712 107.422 176.55 107.422C176.067 107.584 175.26 107.422 174.776 107.584C174.615 107.584 174.454 107.584 174.131 107.584C173.325 107.584 172.195 107.261 172.195 107.1C170.583 105.648 168.97 104.358 167.357 102.906C166.228 101.938 165.26 100.971 164.292 99.8415C164.131 99.6802 163.969 99.5189 163.969 99.3576C163.324 98.5511 162.84 97.7446 162.84 97.7446C162.518 97.2607 162.195 96.6155 161.873 96.1317C161.066 94.68 159.937 93.5509 158.808 92.2606C158.485 91.938 158.163 91.6154 157.84 91.2928C157.679 91.1315 157.518 90.9702 157.518 90.9702C157.518 90.9702 157.518 90.9702 157.356 90.8089C156.388 90.0024 155.582 89.1959 154.775 88.3894C153.163 86.6152 151.711 85.0022 150.259 83.228C149.13 81.9376 148.162 80.4859 147.195 79.0343C146.872 78.5504 146.711 78.0665 146.711 77.5826C146.388 75.9696 146.065 74.518 145.743 72.905C145.098 70.6469 144.13 68.55 142.356 66.937C141.227 65.808 139.936 64.8402 138.162 64.5176C137.355 64.3563 136.549 64.3563 135.904 64.195C135.097 63.8724 134.291 63.5498 133.484 63.0659C132.033 62.2594 130.581 61.453 129.129 60.4852C128.645 60.1626 128.162 59.5174 127.839 59.0335C127.516 58.7109 127.516 58.0657 127.355 57.5819C127.355 57.098 127.355 56.4528 127.355 55.9689C127.194 54.6785 127.516 53.3882 128 52.0978C128.162 51.6139 128.162 51.13 128.323 50.8074C128.484 50.4848 128.645 50.1622 128.807 49.8396C128.968 49.517 129.291 49.0332 129.452 47.9041V47.7428C129.613 46.9363 129.775 46.1298 129.775 45.162C129.775 44.5169 129.613 44.1943 129.129 44.1943C128.968 44.1943 128.645 44.3556 128.323 44.3556C128.484 43.7104 128.484 43.0652 128.645 42.42C129.291 39.3554 128.323 36.9359 126.387 34.6778C125.42 33.71 124.129 33.2261 123 33.0648C121.871 32.9035 119.935 32.9035 118.806 33.0648C117.839 33.2261 116.387 33.71 115.419 34.6778C113.484 36.9359 112.516 39.5167 113.161 42.42C113.322 43.0652 113.322 43.7104 113.484 44.3556C113.161 44.1943 113 44.1943 112.677 44.1943C112.193 44.1943 112.193 44.5169 112.032 45.162C112.032 45.9685 112.193 46.9363 112.355 47.7428V47.9041C112.677 49.0332 112.838 49.517 113 49.8396C113.161 50.1622 113.322 50.4848 113.484 50.8074C113.645 51.13 113.645 51.7752 113.806 52.0978C114.29 53.3882 114.613 54.5172 114.451 55.9689C114.451 56.4528 114.451 57.098 114.451 57.5819C114.451 58.0657 114.29 58.5496 113.968 59.0335C113.645 59.5174 113.161 60.1626 112.677 60.4852C111.225 61.453 109.774 62.2594 108.322 63.0659C107.516 63.5498 106.709 63.8724 105.903 64.195C105.096 64.3563 104.451 64.3563 103.645 64.5176C102.032 64.8402 100.741 65.808 99.4509 66.937C97.6766 68.55 96.7088 70.6469 96.0636 72.905C95.741 74.518 95.4185 75.9696 95.0959 77.5826C94.9346 78.0665 94.7733 78.7117 94.612 79.0343C93.6442 80.4859 92.6764 81.9376 91.5474 83.228C90.0957 85.0022 88.4827 86.7765 87.0311 88.3894C86.2246 89.1959 85.2568 90.0024 84.4503 90.8089C84.4503 90.8089 84.4503 90.8089 84.289 90.9702C84.1277 91.1315 83.9664 91.2928 83.9664 91.2928C83.6438 91.6154 83.3212 91.938 82.9986 92.2606C81.8696 93.3896 80.9018 94.68 79.934 96.1317C79.6114 96.6155 79.2888 97.2607 78.9662 97.7446C78.9662 97.7446 78.4824 98.5511 77.8372 99.3576C77.6759 99.5189 77.5146 99.6802 77.5146 99.8415C76.7081 100.971 75.579 101.938 74.45 102.906C72.837 104.358 71.224 105.809 69.6111 107.1C69.4498 107.261 68.482 107.584 67.6755 107.584C67.5142 107.584 67.1916 107.584 67.0303 107.584C66.5464 107.422 65.7399 107.584 65.2561 107.422C65.0948 107.422 64.7722 107.422 64.4496 107.422C64.127 107.422 63.8044 107.422 63.6431 107.584C62.9979 107.584 62.1914 108.068 61.5462 108.229C60.5785 108.551 59.2881 109.197 58.3203 109.519C57.8364 110.164 55.417 111.455 57.5138 111.777C58.6429 111.939 61.7075 110.81 62.6753 110.971C62.8366 110.971 62.9979 110.971 62.9979 111.132C63.6431 112.1 62.1914 112.584 61.7075 113.068C61.3849 113.39 60.9011 113.713 60.5785 114.036C60.0946 114.519 59.2881 115.326 58.6429 115.971V116.132C58.4816 116.294 58.4816 116.455 58.3203 116.455C57.6751 117.261 55.9009 119.681 55.9009 119.681C55.9009 119.842 55.9009 120.004 55.9009 120.165C55.9009 120.326 56.0622 120.487 56.2235 120.649C56.2235 120.649 56.2235 120.649 56.3848 120.649C56.8686 120.649 58.159 119.036 59.4494 117.907C59.9333 117.423 60.4172 117.1 60.7398 116.778L62.0301 115.971C62.1914 115.971 62.0301 116.132 62.0301 116.132C61.8688 116.294 61.5462 116.616 61.2236 116.939C59.9333 118.229 57.6751 120.004 57.1912 121.133C57.0299 121.455 57.5138 121.778 57.6751 121.778C58.3203 121.778 59.1268 121.133 59.6107 120.487C60.4172 119.681 62.0301 118.391 62.9979 117.745C63.1592 117.584 63.3205 117.584 63.3205 117.584C63.3205 117.584 63.4818 117.584 63.4818 117.745C63.4818 117.907 63.3205 118.068 63.1592 118.068C62.3527 118.713 61.0624 120.004 60.2559 120.649C59.9333 120.81 58.9655 121.778 58.9655 122.1C58.9655 122.423 59.2881 122.423 59.6107 122.423C59.772 122.423 59.772 122.423 59.9333 122.423C60.4172 122.423 61.2237 121.778 61.5462 121.455C61.8688 121.294 64.2883 118.874 64.6109 118.874C65.0948 119.197 61.0624 121.939 61.2236 122.746C61.2236 123.068 61.3849 123.068 61.7075 123.068C62.6753 123.068 65.0948 120.81 65.5787 120.487C66.869 119.197 68.3207 118.552 69.7724 117.423C70.5788 116.778 71.3853 116.294 71.8692 115.487C72.5144 114.519 73.1596 113.713 74.1274 113.068C75.2564 112.423 76.3855 111.455 77.5146 110.81C78.8049 110.003 80.0953 109.035 81.3857 108.229C81.8696 107.906 82.1922 107.745 82.6761 107.422C82.6761 107.422 85.0955 105.809 85.7407 105.164C86.3859 104.68 86.8698 104.196 87.3537 103.713C87.3537 103.713 87.5149 103.551 87.6762 103.39C87.6762 103.39 87.8375 103.39 87.8375 103.229C88.1601 102.906 88.644 102.584 88.9666 102.261C89.2892 101.938 89.6118 101.616 89.9344 101.293L91.3861 99.6802C92.0312 98.8737 92.6764 98.2285 93.1603 97.422C93.4829 96.9381 93.8055 96.293 94.1281 95.8091C96.0636 93.7122 97.8379 91.4541 99.9348 89.5185C101.87 87.7443 102.999 85.6474 103.161 83.0667C103.322 84.0344 103.483 85.0022 103.645 85.97C103.967 87.2604 104.451 88.5507 104.935 89.6798C105.258 90.8089 105.58 91.938 105.903 93.067C106.225 94.0348 106.548 95.1639 106.548 96.1317C106.548 97.7446 106.548 99.3576 106.387 100.971L106.225 102.745V102.906C106.064 105.003 106.387 107.1 105.741 109.035C105.58 109.358 105.58 109.681 105.419 109.842C104.935 111.939 104.451 114.197 104.128 116.294C103.806 118.229 102.838 119.681 102.032 121.294C101.709 122.1 101.225 122.907 100.903 123.875C100.58 125.004 100.257 126.294 99.9348 127.423C99.6122 128.714 99.1283 129.843 98.8057 131.133C98.4831 132.101 98.3218 132.907 98.1605 133.875C97.8379 135.327 97.354 136.778 97.0314 138.23C96.8701 139.036 96.8701 140.004 96.8701 140.811C96.8701 141.456 96.8701 142.262 96.8701 142.908C96.8701 143.23 96.8701 143.553 96.8701 143.714C96.8701 143.714 96.8701 143.875 96.8701 144.037C96.8701 145.004 96.8701 148.392 96.8701 149.359C96.8701 150.489 96.7088 151.456 96.5475 151.94C96.0636 154.037 95.4185 154.521 95.2572 156.94C95.2572 157.263 95.0959 157.424 94.9346 157.747C94.7733 158.231 94.4507 158.553 94.2894 159.037C94.1281 159.682 93.9668 160.328 93.8055 160.973C93.6442 161.295 93.4829 161.618 93.4829 161.941C93.3216 162.747 92.999 163.715 92.8377 164.521C92.5151 165.973 92.0312 167.586 91.7086 169.038C91.3861 170.489 91.386 171.941 91.2248 173.554C91.0635 176.457 90.9022 179.522 90.7409 182.425C90.5796 185.812 90.5796 189.361 90.4183 192.748C90.4183 193.232 90.0957 193.555 90.0957 194.038C89.7731 194.845 89.6118 195.651 89.2892 196.458C89.2892 196.781 89.2892 196.942 89.1279 197.264C88.9666 197.587 88.8053 197.91 88.644 198.232C88.644 198.393 88.4827 198.394 88.4827 198.555C88.4827 198.555 88.3214 199.039 88.1601 199.523C87.9988 200.006 87.9988 200.168 87.9988 200.329C87.8375 200.974 87.3536 201.619 87.0311 202.265C86.7085 202.91 86.5472 203.394 86.0633 204.039C85.7407 204.684 85.2568 205.329 84.7729 206.136C84.289 207.103 83.6438 208.233 83.1599 209.362C82.9986 210.007 82.8373 210.975 83.1599 211.297C83.6438 211.942 84.6116 212.265 85.4181 212.426C86.0633 212.426 86.7085 212.588 87.3537 212.588C88.8053 212.588 90.257 212.426 91.0635 211.459C92.1925 210.329 92.6764 208.878 92.999 207.587C93.1603 206.62 93.3216 205.813 93.4829 204.845C93.6442 204.2 93.6442 204.2 93.6442 203.878C93.8055 203.555 94.1281 203.232 94.1281 203.232C94.7733 202.748 95.5798 202.265 96.2249 201.619C96.7088 201.297 97.1927 200.813 97.1927 200.329C97.354 199.523 97.1927 198.716 97.0314 198.071C96.8701 197.103 96.5475 196.297 96.5475 195.329C96.3862 194.039 96.3862 192.587 96.5475 191.296C96.7088 190.006 96.8701 188.877 97.354 187.748C97.8379 186.135 98.6444 184.683 98.967 183.07C99.4509 181.619 99.6122 180.006 99.9348 178.554C100.096 178.07 100.096 177.586 100.257 177.264C100.58 176.296 101.064 175.489 101.709 174.683C102.677 173.231 103.161 171.618 103.161 169.844C103.161 167.747 103.161 165.65 103.322 163.554C103.322 163.392 103.322 163.07 103.483 162.908C103.806 162.263 104.128 161.779 104.451 161.295C104.774 160.811 104.935 160.166 105.258 159.682C105.903 158.876 106.064 157.908 106.387 156.94C106.548 156.295 107.032 155.166 107.032 155.166C107.354 154.037 107.677 152.747 108.161 151.618C108.645 150.327 109.129 149.037 109.774 147.585C110.258 146.295 110.58 145.166 111.225 144.037C112.193 142.262 113.322 140.488 114.451 138.875C115.419 137.262 116.226 135.649 116.871 133.875C117.355 132.423 119.129 129.843 120.742 129.843C122.355 129.843 124.129 132.262 124.613 133.875C125.258 135.649 126.065 137.262 127.033 138.875C128.162 140.649 129.291 142.262 130.258 144.037C130.904 145.166 131.226 146.456 131.71 147.585C132.194 148.876 132.839 150.166 133.323 151.618C133.807 152.747 134.13 154.037 134.452 155.166C134.452 155.166 134.936 156.456 135.097 156.94C135.42 157.908 135.743 158.876 136.226 159.682C136.549 160.166 136.71 160.811 137.033 161.295C137.356 161.941 137.678 162.424 138.001 162.908C138.162 163.07 138.162 163.392 138.162 163.554C138.162 165.65 138.323 167.747 138.323 169.844C138.323 171.618 138.646 173.231 139.775 174.683C140.42 175.489 140.904 176.296 141.227 177.264C141.388 177.748 141.388 178.231 141.549 178.554C141.872 180.006 142.033 181.619 142.517 183.07C143.001 184.683 143.646 186.135 144.13 187.748C144.453 188.877 144.775 190.167 144.936 191.296C145.098 192.587 145.098 194.039 144.936 195.329C144.936 196.297 144.614 197.103 144.453 198.071C144.291 198.877 144.13 199.684 144.291 200.329C144.453 200.813 144.936 201.297 145.259 201.619C145.904 202.265 146.711 202.587 147.356 203.232C147.356 203.232 147.84 203.555 147.84 203.878C148.001 204.2 148.001 204.2 148.001 204.845C148.162 205.813 148.324 206.781 148.485 207.587C148.808 209.039 149.453 210.491 150.42 211.459C151.227 212.265 152.679 212.588 154.13 212.588C154.775 212.588 155.421 212.588 156.066 212.426C156.872 212.426 157.84 211.942 158.324 211.297C158.647 210.975 158.647 210.007 158.324 209.362C158.001 208.233 157.356 207.265 156.711 206.136C156.388 205.491 155.905 204.845 155.421 204.039C155.098 203.394 154.775 202.91 154.453 202.265C154.13 201.619 153.808 200.974 153.485 200.329C153.485 200.168 153.324 200.006 153.324 199.523C153.163 199.039 153.001 198.555 153.001 198.555C153.001 198.394 152.84 198.393 152.84 198.232C152.679 197.91 152.517 197.587 152.356 197.264C152.195 197.103 152.356 196.781 152.195 196.458C152.033 195.651 151.711 194.845 151.388 194.038C151.227 193.555 151.066 193.232 151.066 192.748C150.904 189.361 150.904 185.812 150.743 182.425C150.582 179.522 150.42 176.457 150.259 173.554C150.098 172.102 150.098 170.489 149.775 169.038C149.453 167.586 148.969 165.973 148.646 164.521C148.485 163.715 148.324 162.747 148.001 161.941C147.84 161.618 147.678 161.295 147.678 160.973C147.517 160.328 147.356 159.682 147.195 159.037C147.033 158.553 146.711 158.231 146.549 157.747C146.388 157.424 146.227 157.263 146.227 156.94C145.904 153.714 145.582 154.521 144.936 151.94C144.775 151.456 144.614 150.489 144.614 149.359C144.614 148.23 144.614 145.004 144.614 144.037C144.614 143.875 144.614 143.875 144.614 143.714C144.614 143.391 144.614 143.069 144.614 142.908C144.614 142.262 144.614 141.456 144.614 140.811C144.614 140.004 144.614 139.036 144.453 138.23C144.291 136.778 143.807 135.327 143.323 133.875C143.162 132.907 143.001 132.101 142.678 131.133C142.356 129.843 141.872 128.714 141.549 127.423C141.227 126.294 140.904 125.004 140.581 123.875C140.259 123.068 139.775 122.262 139.452 121.294C138.646 119.681 137.678 118.068 137.355 116.294C137.033 114.197 136.549 111.939 136.065 109.842C136.065 109.519 135.904 109.197 135.743 109.035C134.936 107.1 135.42 105.003 135.259 102.906V102.745L135.097 100.971C134.936 99.3576 134.936 97.7446 134.936 96.1317C134.936 95.1639 135.259 94.0348 135.581 93.067C135.904 91.938 136.226 90.8089 136.549 89.6798C137.033 88.3894 137.517 87.0991 137.839 85.97C138.646 84.5183 138.807 83.5506 138.968 82.5828Z" fill="white"/>
</svg>
